<svg width="258" height="96" viewBox="0 0 258 96" fill="none" xmlns="http://www.w3.org/2000/svg">
<path d="M221.909 1.67424C217.109 4.67424 215.209 8.27424 215.209 14.2742C215.109 18.2742 215.709 20.3742 217.409 22.6742L219.609 25.6742L214.409 29.6742C211.509 31.7742 207.309 34.4742 205.109 35.5742L201.109 37.5742L196.309 33.2742C185.509 23.7742 172.609 20.7742 172.609 27.7742C172.609 30.5742 178.809 35.5742 185.109 37.8742C188.409 39.0742 191.509 40.4742 192.009 40.8742C194.609 43.1742 175.309 46.2742 164.809 45.2742C157.609 44.5742 157.409 44.4742 154.509 40.4742C144.109 25.7742 137.709 19.9742 130.709 19.0742C127.109 18.5742 126.609 18.7742 125.509 21.0742C124.609 23.0742 124.609 24.3742 125.609 26.8742C126.909 29.9742 134.409 36.5742 139.809 39.3742C141.309 40.1742 142.609 41.1742 142.609 41.6742C142.609 42.3742 115.309 38.9742 108.009 37.3742C105.509 36.7742 104.709 35.9742 103.709 32.7742C100.309 21.2742 78.0089 7.07424 76.8089 15.5742C76.2089 19.4742 78.5089 23.4742 84.2089 28.6742C87.2089 31.3742 89.6089 33.7742 89.6089 33.9742C89.6089 34.1742 83.2089 34.2742 75.3089 34.2742L61.1089 34.1742L55.2089 30.5742C51.9089 28.4742 47.4089 26.5742 44.8089 26.1742C36.6089 24.9742 27.6089 28.7742 27.6089 33.4742C27.6089 35.7742 32.6089 39.6742 36.5089 40.3742C38.5089 40.7742 40.4089 41.2742 40.9089 41.4742C41.3089 41.6742 38.1089 44.7742 33.9089 48.1742C24.2089 55.9742 18.8089 61.8742 15.6089 68.0742C13.9089 71.2742 12.3089 73.0742 10.6089 73.4742C3.00891 75.2742 -1.59109 80.8742 0.508911 85.4742C1.60891 87.9742 2.50891 88.0742 6.90891 86.2742C8.40891 85.6742 8.60891 86.1742 8.60891 90.5742C8.60891 93.3742 9.00891 95.8742 9.50891 96.2742C11.2089 97.2742 13.5089 93.8742 14.2089 89.2742L14.8089 84.7742L17.8089 87.2742C19.4089 88.6742 21.4089 89.7742 22.2089 89.7742C24.3089 89.7742 25.5089 85.8742 24.5089 82.2742C23.5089 78.9742 18.4089 73.7742 16.1089 73.7742C14.0089 73.7742 17.1089 67.8742 22.2089 61.8742C29.4089 53.5742 49.0089 40.7742 51.2089 43.0742C51.5089 43.3742 50.5089 45.4742 49.1089 47.7742C45.5089 53.4742 43.6089 59.1742 43.6089 64.3742C43.6089 69.6742 45.8089 72.2742 48.8089 70.6742C51.1089 69.3742 56.6089 57.8742 59.7089 47.5742C60.9089 43.5742 62.4089 39.9742 63.0089 39.5742C64.4089 38.5742 88.3089 38.7742 91.6089 39.6742C94.0089 40.3742 93.8089 40.5742 89.1089 42.9742C83.7089 45.7742 81.0089 48.3742 77.7089 53.7742C74.3089 59.4742 75.1089 65.7742 79.2089 65.7742C85.5089 65.7742 96.2089 56.9742 101.709 47.2742L104.609 42.1742L121.309 44.5742C130.609 45.9742 138.509 47.3742 139.009 47.8742C139.509 48.2742 138.009 50.7742 135.709 53.3742C129.309 60.6742 126.909 71.7742 131.809 71.7742C134.909 71.7742 141.909 66.3742 149.409 58.1742L156.309 50.5742L167.709 50.6742C174.009 50.7742 181.509 50.3742 184.509 49.7742C187.509 49.2742 190.109 48.9742 190.309 49.1742C190.609 49.3742 188.909 53.0742 186.709 57.2742C182.409 65.2742 181.309 72.0742 184.009 73.0742C187.709 74.4742 193.809 65.7742 198.609 52.0742C201.309 44.3742 202.309 42.7742 204.709 41.7742C206.309 41.0742 210.409 38.5742 213.809 36.1742C219.809 31.9742 220.109 31.8742 220.409 34.0742C221.109 39.5742 223.809 44.7742 226.309 45.3742C230.009 46.3742 235.109 43.4742 238.709 38.5742C241.309 34.8742 252.909 16.5742 256.309 10.5742C257.809 7.77424 256.909 5.87424 253.709 5.27424C252.309 4.97424 247.709 3.77424 243.609 2.57424C232.909 -0.525757 225.909 -0.825757 221.909 1.67424ZM241.309 8.27424C245.909 9.67424 249.609 11.0742 249.609 11.2742C249.609 12.1742 238.309 30.2742 235.309 34.0742C230.409 40.4742 226.309 41.1742 225.109 35.9742C224.309 32.1742 226.009 27.3742 229.509 22.8742C231.209 20.7742 232.609 18.4742 232.609 17.8742C232.609 15.6742 229.709 15.6742 226.809 17.7742C223.209 20.4742 220.109 19.7742 219.209 16.1742C218.209 12.4742 219.409 9.87424 222.909 7.67424C227.209 5.17424 231.409 5.27424 241.309 8.27424ZM88.6089 21.8742C92.8089 24.3742 96.4089 27.6742 97.7089 29.9742C99.3089 32.8742 93.3089 30.1742 88.1089 25.5742C81.7089 19.9742 82.0089 17.8742 88.6089 21.8742ZM139.909 29.8742C141.909 31.5742 143.609 33.3742 143.609 33.8742C143.609 35.3742 136.409 31.2742 133.109 27.8742L130.209 24.7742L133.209 25.7742C134.909 26.3742 137.909 28.1742 139.909 29.8742ZM187.409 31.4742C189.709 32.7742 191.609 34.0742 191.609 34.3742C191.609 35.8742 179.409 30.7742 178.109 28.7742C177.109 27.0742 182.509 28.6742 187.409 31.4742ZM51.6089 33.9742L55.1089 35.8742L46.5089 35.4742C37.9089 34.9742 32.4089 33.4742 35.6089 32.3742C41.0089 30.5742 46.3089 31.0742 51.6089 33.9742ZM96.0089 47.9742C90.8089 54.2742 87.8089 57.1742 84.3089 58.9742C79.9089 61.1742 78.7089 60.7742 80.5089 57.4742C83.3089 52.2742 88.2089 48.0742 93.3089 46.2742C97.9089 44.6742 98.5089 45.0742 96.0089 47.9742ZM52.6089 55.9742C51.5089 58.9742 49.9089 62.2742 49.0089 63.3742C47.6089 65.1742 47.5089 64.9742 47.9089 61.0742C48.5089 56.3742 53.8089 46.1742 54.4089 48.8742C54.5089 49.7742 53.8089 52.9742 52.6089 55.9742ZM149.609 50.8742C149.609 52.5742 133.309 68.3742 132.909 67.0742C131.709 63.6742 139.509 53.6742 145.109 51.1742C148.809 49.5742 149.609 49.4742 149.609 50.8742ZM190.609 60.7742C190.009 61.9742 189.209 62.6742 188.909 62.4742C188.709 62.1742 189.009 60.9742 189.609 59.7742C190.209 58.5742 191.009 57.8742 191.309 58.0742C191.509 58.3742 191.209 59.5742 190.609 60.7742ZM21.0089 83.3742C21.7089 85.2742 21.2089 85.1742 19.1089 82.7742C17.5089 81.0742 17.5089 80.7742 18.8089 81.2742C19.7089 81.6742 20.7089 82.5742 21.0089 83.3742Z" fill="#F3DDB6"/>
</svg>
